<svg>
    <symbol viewBox="0 0 30 24" id="ic-camera" xmlns="http://www.w3.org/2000/svg">
        <path d="M19.688 12.938a4.688 4.688 0 1 1-9.376 0 4.688 4.688 0 0 1 9.376 0z"/>
        <path fill-rule="evenodd" clip-rule="evenodd"
              d="M3.75 4.5A3.75 3.75 0 0 0 0 8.25V19.5a3.75 3.75 0 0 0 3.75 3.75h22.5A3.75 3.75 0 0 0 30 19.5V8.25a3.75 3.75 0 0 0-3.75-3.75h-2.198a3.75 3.75 0 0 1-2.65-1.099L19.848 1.85A3.75 3.75 0 0 0 17.198.75h-4.396a3.75 3.75 0 0 0-2.65 1.099L8.598 3.4A3.75 3.75 0 0 1 5.947 4.5H3.75zm.938 3.75a.937.937 0 1 0 0-1.875.937.937 0 0 0 0 1.875zm16.875 4.688a6.563 6.563 0 1 1-13.126 0 6.563 6.563 0 0 1 13.126 0z"
        />
    </symbol>
    <symbol viewBox="0 0 18 10" id="ic-arrow-right" xmlns="http://www.w3.org/2000/svg">
        <path d="M15.564 4.313L12.15.9l.9-.9L18 4.95 13.05 9.9l-.9-.9 3.414-3.414H0V4.313h15.564z"/>
    </symbol>
    <symbol id="ic-file" fill="none" viewBox="0 0 15 20" xmlns="http://www.w3.org/2000/svg">
        <path
                d="M9.25 1.25h-7A1.75 1.75 0 0 0 .5 3v14a1.75 1.75 0 0 0 1.75 1.75h10.5A1.75 1.75 0 0 0 14.5 17V6.5M9.25 1.25L14.5 6.5M9.25 1.25V6.5h5.25M11 10.875H4m7 3.5H4m1.75-7H4"
                stroke="currentColor" stroke-linecap="round" stroke-linejoin="round"/>
    </symbol>
    <symbol viewBox="0 0 13 14" id="ic-download" xmlns="http://www.w3.org/2000/svg">
        <path d="M0 12.526h13V14H0v-1.474zm7.222-4.294l4.385-4.474L12.628 4.8 6.5 11.053.372 4.8l1.021-1.043L5.778 8.23V0h1.444v8.232z"/>
    </symbol>
    <symbol viewBox="0 0 21 14" id="ic-arrow-left" xmlns="http://www.w3.org/2000/svg">
        <path d="M3.534 6.1H21v1.8H3.534l4.95 4.827L7.18 14 0 7l7.18-7 1.305 1.273L3.534 6.1z"/>
    </symbol>
    <symbol id="ic-user" fill="none" viewBox="0 0 28 28" xmlns="http://www.w3.org/2000/svg">
        <path fill-rule="evenodd" clip-rule="evenodd"
              d="M6.222 2.36A14 14 0 0 1 14 0a14.016 14.016 0 0 1 14 14A14 14 0 1 1 6.222 2.36zM8 23v1.377a11.9 11.9 0 0 0 12 0V23a3.003 3.003 0 0 0-3-3h-6a3.003 3.003 0 0 0-3 3zm12.504-3.558a5.002 5.002 0 0 1 1.488 3.484h.001a12 12 0 1 0-15.985 0A5.002 5.002 0 0 1 11 18h6c1.312.003 2.57.52 3.504 1.442zm-9.282-12.6a5 5 0 1 1 5.556 8.315 5 5 0 0 1-5.556-8.314zm1.111 6.652a3 3 0 1 0 3.333-4.987 3 3 0 0 0-3.333 4.987z"/>
    </symbol>
    <symbol id="ic-info" fill="none" viewBox="0 0 14 14" xmlns="http://www.w3.org/2000/svg">
        <path d="M7 14A7 7 0 1 1 7 0a7 7 0 0 1 0 14zm-.7-7.7v4.2h1.4V6.3H6.3zm0-2.8v1.4h1.4V3.5H6.3z" fill="#8B9498"/>
    </symbol>
    <symbol id="ic-logout" fill="none" viewBox="0 0 22 20" xmlns="http://www.w3.org/2000/svg">
        <path fill="#2b6846" d="M10 20C4.477 20 0 15.523 0 10S4.477 0 10 0a9.985 9.985 0 0 1 8 4h-2.71a8 8 0 1 0 .001 12h2.71A9.985 9.985 0 0 1 10 20zm7-6v-3H9V9h8V6l5 4-5 4z"/>
    </symbol>
    <symbol id="ic-upload" viewBox="0 0 13 14" xmlns="http://www.w3.org/2000/svg">
        <path
                d="M0 12.526h13V14H0v-1.474zm7.222-9.705l4.385 4.474 1.021-1.042L6.5 0 .372 6.252l1.021 1.043 4.385-4.473v8.23h1.444V2.822z"
                fill="#FAFDFF"/>
    </symbol>
    <symbol id="ic-upload-1" viewBox="0 0 20 18" xmlns="http://www.w3.org/2000/svg">
        <path d="M2 16h16V9h2v8a1 1 0 0 1-1 1H1a1 1 0 0 1-1-1V9h2v7zm9-10v7H9V6H4l6-6 6 6h-5z"/>
    </symbol>
    <symbol id="ic-plus" viewBox="0 0 17 17" xmlns="http://www.w3.org/2000/svg">
        <path fill-rule="evenodd" clip-rule="evenodd"
              d="M.875 8.875a8 8 0 1 1 16.001.001A8 8 0 0 1 .875 8.875zm1.357 0a6.644 6.644 0 0 0 13.286 0 6.644 6.644 0 0 0-13.286 0zm7.214-.571h2.715c.078 0 .143.064.143.142v.858a.143.143 0 0 1-.143.142H9.446v2.715a.143.143 0 0 1-.142.143h-.858a.143.143 0 0 1-.142-.143V9.446H5.589a.143.143 0 0 1-.143-.142v-.858c0-.078.065-.142.143-.142h2.715V5.589c0-.078.064-.143.142-.143h.858c.078 0 .142.065.142.143v2.715z"
        />
    </symbol>
    <symbol id="ic-plus-1" xmlns="http://www.w3.org/2000/svg" viewBox="0 0 24 24">
        <path
                d="M5 13h6v6c0 0.552 0.448 1 1 1s1-0.448 1-1v-6h6c0.552 0 1-0.448 1-1s-0.448-1-1-1h-6v-6c0-0.552-0.448-1-1-1s-1 0.448-1 1v6h-6c-0.552 0-1 0.448-1 1s0.448 1 1 1z"></path>
    </symbol>
    <symbol id="ic-edit" viewBox="0 0 17 17" xmlns="http://www.w3.org/2000/svg">
        <path
                d="M16.023 4.053L13.1 1.117a1.03 1.03 0 0 0-1.453 0L1.292 11.46l-.946 4.08a1.025 1.025 0 0 0 .995 1.245c.072.007.143.007.215 0l4.125-.946L16.023 5.507a1.03 1.03 0 0 0 0-1.454zm-10.84 10.89l-3.866.81.88-3.792 7.75-7.718 2.985 2.986-7.749 7.713zM13.6 6.506l-2.986-2.986 1.732-1.722 2.936 2.986L13.6 6.507z"
        />
    </symbol>
    <symbol id="ic-close" viewBox="0 0 24 24" xmlns="http://www.w3.org/2000/svg">
        <path
                d="M18.984 6.422L13.406 12l5.578 5.578-1.406 1.406L12 13.406l-5.578 5.578-1.406-1.406L10.594 12 5.016 6.422l1.406-1.406L12 10.594l5.578-5.578z"/>
    </symbol>
    <symbol id="ic-success" fill="none" viewBox="0 0 44 44" xmlns="http://www.w3.org/2000/svg">
        <circle cx="22" cy="22" r="22" fill="#5BC595"/>
        <path d="M14 22.5l5 5.5 12.5-12.5" stroke="#D6F0E4" stroke-width="4" stroke-linecap="round"/>
    </symbol>
    <symbol id="ic-switchcamera" viewBox="0 -25 512 512" xmlns="http://www.w3.org/2000/svg">
        <path
                d="M351 253h-51c-11.047 0-20-8.953-20-20s8.953-20 20-20h23.352c-15.082-25.14-42.309-41-72.813-41-31.219 0-59.871 17.066-74.773 44.54-5.27 9.706-17.41 13.308-27.118 8.038-9.71-5.266-13.308-17.406-8.043-27.113C162.512 157.085 204.637 132 250.535 132c27.336 0 53.305 8.664 75.094 25.063 9.664 7.269 18.203 15.964 25.371 25.656V163c0-11.047 8.953-20 20-20s20 8.953 20 20v50c0 22.055-17.945 40-40 40zm141 49c11.047 0 20-8.953 20-20V152c0-44.113-35.887-80-80-80h-30.36a20.003 20.003 0 0 1-18.937-13.555l-6.05-17.78C368.374 16.343 345.55 0 319.854 0h-127.77c-25.198 0-47.878 15.922-56.433 39.621l-6.925 19.172C125.875 66.691 118.317 72 109.914 72H80c-44.113 0-80 35.887-80 80v230c0 44.113 35.887 80 80 80h352c44.113 0 80-35.887 80-80 0-11.047-8.953-20-20-20s-20 8.953-20 20c0 22.055-17.945 40-40 40H80c-22.055 0-40-17.945-40-40V152c0-22.055 17.945-40 40-40h29.914c25.2 0 47.879-15.922 56.434-39.621l6.925-19.172C176.125 45.309 183.683 40 192.086 40h127.77a19.997 19.997 0 0 1 18.933 13.555l6.05 17.78C353.122 95.657 375.946 112 401.642 112H432c22.055 0 40 17.945 40 40v130c0 11.047 8.953 20 20 20zm-263-17c0-11.047-8.953-20-20-20h-51c-22.055 0-40 17.945-40 40v50c0 11.047 8.953 20 20 20s20-8.953 20-20v-19.969c7.207 9.793 15.809 18.574 25.555 25.906C205.348 377.337 231.312 386 258.645 386c45.902 0 88.027-25.086 109.933-65.46 5.27-9.712 1.668-21.853-8.043-27.118-9.707-5.27-21.847-1.668-27.113 8.043C318.516 328.934 289.863 346 258.645 346c-30.504 0-57.73-15.86-72.813-41H209c11.047 0 20-8.953 20-20zm0 0"/>
    </symbol>
    <symbol id="ic-reload" viewBox="0 0 512 512" xmlns="http://www.w3.org/2000/svg">
        <path
                d="M464.022 232H464a24 24 0 0 0-23.98 24.021 184.063 184.063 0 0 1-289.527 150.688c-83.1-58.188-103.369-173.136-45.181-256.237S278.449 47.1 361.549 105.29A184.078 184.078 0 0 1 395.561 136h-67.54a24 24 0 0 0 0 48h112a24 24 0 0 0 24-24V48a24 24 0 0 0-48 0v39.967a234.175 234.175 0 0 0-26.94-22 231.982 231.982 0 1 0-266.119 380.061 230.285 230.285 0 0 0 132.567 42.015 234.971 234.971 0 0 0 40.776-3.585 232.025 232.025 0 0 0 191.716-228.479A24 24 0 0 0 464.022 232z"/>
    </symbol>
    <symbol id="ic-reset" viewBox="0 0 477.867 477.867" xmlns="http://www.w3.org/2000/svg">
        <path
                d="M409.6 0c-9.426 0-17.067 7.641-17.067 17.067v62.344C304.667-5.656 164.478-3.386 79.411 84.479a221.44 221.44 0 0 0-62.344 154.454c0 9.426 7.641 17.067 17.067 17.067S51.2 248.359 51.2 238.933c.021-103.682 84.088-187.717 187.771-187.696a187.734 187.734 0 0 1 138.442 60.976l-75.605 25.207c-8.954 2.979-13.799 12.652-10.82 21.606s12.652 13.799 21.606 10.82l102.4-34.133a17.069 17.069 0 0 0 11.674-16.247v-102.4C426.667 7.641 419.026 0 409.6 0zM443.733 221.867c-9.426 0-17.067 7.641-17.067 17.067-.021 103.682-84.088 187.717-187.771 187.696a187.734 187.734 0 0 1-138.442-60.976l75.605-25.207c8.954-2.979 13.799-12.652 10.82-21.606-2.979-8.954-12.652-13.799-21.606-10.82l-102.4 34.133a17.069 17.069 0 0 0-11.674 16.247v102.4c0 9.426 7.641 17.067 17.067 17.067s17.067-7.641 17.067-17.067v-62.345c87.866 85.067 228.056 82.798 313.122-5.068a221.44 221.44 0 0 0 62.344-154.454c.002-9.426-7.639-17.067-17.065-17.067z"/>
    </symbol>
    <svg id="ic-delete" fill="none" xmlns="http://www.w3.org/2000/svg" viewBox="0 0 14 14">
        <path
                d="M10.5 2.8H14v1.4h-1.4v9.1a.7.7 0 0 1-.7.7H2.1a.7.7 0 0 1-.7-.7V4.2H0V2.8h3.5V.7a.7.7 0 0 1 .7-.7h5.6a.7.7 0 0 1 .7.7v2.1zm.7 1.4H2.8v8.4h8.4V4.2zM4.9 6.3h1.4v4.2H4.9V6.3zm2.8 0h1.4v4.2H7.7V6.3zM4.9 1.4v1.4h4.2V1.4H4.9z"
                fill="currentColor"></path>
    </svg>
    <symbol id="ic-zoom-out" viewBox="0 0 24 24" xmlns="http://www.w3.org/2000/svg">
        <path
                d="M16.041 15.856c-0.034 0.026-0.067 0.055-0.099 0.087s-0.060 0.064-0.087 0.099c-1.258 1.213-2.969 1.958-4.855 1.958-1.933 0-3.682-0.782-4.95-2.050s-2.050-3.017-2.050-4.95 0.782-3.682 2.050-4.95 3.017-2.050 4.95-2.050 3.682 0.782 4.95 2.050 2.050 3.017 2.050 4.95c0 1.886-0.745 3.597-1.959 4.856zM21.707 20.293l-3.675-3.675c1.231-1.54 1.968-3.493 1.968-5.618 0-2.485-1.008-4.736-2.636-6.364s-3.879-2.636-6.364-2.636-4.736 1.008-6.364 2.636-2.636 3.879-2.636 6.364 1.008 4.736 2.636 6.364 3.879 2.636 6.364 2.636c2.125 0 4.078-0.737 5.618-1.968l3.675 3.675c0.391 0.391 1.024 0.391 1.414 0s0.391-1.024 0-1.414zM8 12h6c0.552 0 1-0.448 1-1s-0.448-1-1-1h-6c-0.552 0-1 0.448-1 1s0.448 1 1 1z"></path>
    </symbol>
    <symbol id="ic-zoom-in" viewBox="0 0 24 24" xmlns="http://www.w3.org/2000/svg">
        <path
                d="M16.041 15.856c-0.034 0.026-0.067 0.055-0.099 0.087s-0.060 0.064-0.087 0.099c-1.258 1.213-2.969 1.958-4.855 1.958-1.933 0-3.682-0.782-4.95-2.050s-2.050-3.017-2.050-4.95 0.782-3.682 2.050-4.95 3.017-2.050 4.95-2.050 3.682 0.782 4.95 2.050 2.050 3.017 2.050 4.95c0 1.886-0.745 3.597-1.959 4.856zM21.707 20.293l-3.675-3.675c1.231-1.54 1.968-3.493 1.968-5.618 0-2.485-1.008-4.736-2.636-6.364s-3.879-2.636-6.364-2.636-4.736 1.008-6.364 2.636-2.636 3.879-2.636 6.364 1.008 4.736 2.636 6.364 3.879 2.636 6.364 2.636c2.125 0 4.078-0.737 5.618-1.968l3.675 3.675c0.391 0.391 1.024 0.391 1.414 0s0.391-1.024 0-1.414zM8 12h2v2c0 0.552 0.448 1 1 1s1-0.448 1-1v-2h2c0.552 0 1-0.448 1-1s-0.448-1-1-1h-2v-2c0-0.552-0.448-1-1-1s-1 0.448-1 1v2h-2c-0.552 0-1 0.448-1 1s0.448 1 1 1z"></path>
    </symbol>
    <symbol id="ic-caret-down" viewBox="0 0 20 20" xmlns="http://www.w3.org/2000/svg">
        <path d="M9.293 12.95l.707.707L15.657 8l-1.414-1.414L10 10.828 5.757 6.586 4.343 8z"/>
    </symbol>
    <symbol id="ic-search" viewBox="0 0 18 18" fill="none" xmlns="http://www.w3.org/2000/svg">
        <path d="M14.026 12.848l3.569 3.568-1.18 1.18-3.567-3.57a7.466 7.466 0 0 1-4.681 1.64c-4.14 0-7.5-3.36-7.5-7.5 0-4.14 3.36-7.5 7.5-7.5 4.14 0 7.5 3.36 7.5 7.5a7.467 7.467 0 0 1-1.641 4.682zm-1.672-.619A5.814 5.814 0 0 0 14 8.167a5.832 5.832 0 0 0-5.833-5.834 5.831 5.831 0 0 0-5.834 5.834A5.832 5.832 0 0 0 8.167 14a5.814 5.814 0 0 0 4.062-1.646l.125-.125z" fill="currentColor"/>
    </symbol>
</svg>
