<svg height="0" width="0" class="hidden">
    <symbol fill="none" viewBox="0 0 30 24" id="ic-camera" xmlns="http://www.w3.org/2000/svg">
        <path d="M19.688 12.938a4.688 4.688 0 1 1-9.376 0 4.688 4.688 0 0 1 9.376 0z" fill="#3E4857"/>
        <path fill-rule="evenodd" clip-rule="evenodd"
              d="M3.75 4.5A3.75 3.75 0 0 0 0 8.25V19.5a3.75 3.75 0 0 0 3.75 3.75h22.5A3.75 3.75 0 0 0 30 19.5V8.25a3.75 3.75 0 0 0-3.75-3.75h-2.198a3.75 3.75 0 0 1-2.65-1.099L19.848 1.85A3.75 3.75 0 0 0 17.198.75h-4.396a3.75 3.75 0 0 0-2.65 1.099L8.598 3.4A3.75 3.75 0 0 1 5.947 4.5H3.75zm.938 3.75a.937.937 0 1 0 0-1.875.937.937 0 0 0 0 1.875zm16.875 4.688a6.563 6.563 0 1 1-13.126 0 6.563 6.563 0 0 1 13.126 0z"
              fill="#3E4857"/>
    </symbol>
    <symbol fill="none" viewBox="0 0 18 10" id="ic-arrow-right" xmlns="http://www.w3.org/2000/svg">
        <path d="M15.564 4.313L12.15.9l.9-.9L18 4.95 13.05 9.9l-.9-.9 3.414-3.414H0V4.313h15.564z" fill="#278BED"/>
    </symbol>
    <symbol fill="none" viewBox="0 0 15 20" id="ic-file" xmlns="http://www.w3.org/2000/svg">
        <path
            d="M9.25 1.25h-7A1.75 1.75 0 0 0 .5 3v14a1.75 1.75 0 0 0 1.75 1.75h10.5A1.75 1.75 0 0 0 14.5 17V6.5M9.25 1.25L14.5 6.5M9.25 1.25V6.5h5.25M11 10.875H4m7 3.5H4m1.75-7H4"
            stroke="#278BED" stroke-linecap="round" stroke-linejoin="round"/>
    </symbol>
    <symbol fill="none" viewBox="0 0 13 14" id="ic-download" xmlns="http://www.w3.org/2000/svg">
        <path
            d="M0 12.526h13V14H0v-1.474zm7.222-4.294l4.385-4.474L12.628 4.8 6.5 11.053.372 4.8l1.021-1.043L5.778 8.23V0h1.444v8.232z"/>
    </symbol>
    <symbol fill="none" viewBox="0 0 21 14" id="ic-arrow-left" xmlns="http://www.w3.org/2000/svg">
        <path d="M3.534 6.1H21v1.8H3.534l4.95 4.827L7.18 14 0 7l7.18-7 1.305 1.273L3.534 6.1z" fill="#278BED"/>
    </symbol>
    <symbol id="ic-user" fill="none" viewBox="0 0 28 28" xmlns="http://www.w3.org/2000/svg">
        <path fill-rule="evenodd" clip-rule="evenodd"
              d="M6.222 2.36A14 14 0 0 1 14 0a14.016 14.016 0 0 1 14 14A14 14 0 1 1 6.222 2.36zM8 23v1.377a11.9 11.9 0 0 0 12 0V23a3.003 3.003 0 0 0-3-3h-6a3.003 3.003 0 0 0-3 3zm12.504-3.558a5.002 5.002 0 0 1 1.488 3.484h.001a12 12 0 1 0-15.985 0A5.002 5.002 0 0 1 11 18h6c1.312.003 2.57.52 3.504 1.442zm-9.282-12.6a5 5 0 1 1 5.556 8.315 5 5 0 0 1-5.556-8.314zm1.111 6.652a3 3 0 1 0 3.333-4.987 3 3 0 0 0-3.333 4.987z"/>
    </symbol>
    <symbol id="ic-info" fill="none" viewBox="0 0 14 14" xmlns="http://www.w3.org/2000/svg">
        <path d="M7 14A7 7 0 1 1 7 0a7 7 0 0 1 0 14zm-.7-7.7v4.2h1.4V6.3H6.3zm0-2.8v1.4h1.4V3.5H6.3z"/>
    </symbol>
    <symbol id="ic-logout" fill="none" viewBox="0 0 22 20" xmlns="http://www.w3.org/2000/svg">
        <path
            d="M10 20C4.477 20 0 15.523 0 10S4.477 0 10 0a9.985 9.985 0 0 1 8 4h-2.71a8 8 0 1 0 .001 12h2.71A9.985 9.985 0 0 1 10 20zm7-6v-3H9V9h8V6l5 4-5 4z"
            fill="#278BED"/>
    </symbol>
    <symbol id="ic-upload" fill="none" viewBox="0 0 13 14" xmlns="http://www.w3.org/2000/svg">
        <path
            d="M0 12.526h13V14H0v-1.474zm7.222-9.705l4.385 4.474 1.021-1.042L6.5 0 .372 6.252l1.021 1.043 4.385-4.473v8.23h1.444V2.822z"
            fill="#FAFDFF"/>
    </symbol>
    <symbol id="ic-plus" fill="none" viewBox="0 0 17 17" xmlns="http://www.w3.org/2000/svg">
        <path fill-rule="evenodd" clip-rule="evenodd"
              d="M.875 8.875a8 8 0 1 1 16.001.001A8 8 0 0 1 .875 8.875zm1.357 0a6.644 6.644 0 0 0 13.286 0 6.644 6.644 0 0 0-13.286 0zm7.214-.571h2.715c.078 0 .143.064.143.142v.858a.143.143 0 0 1-.143.142H9.446v2.715a.143.143 0 0 1-.142.143h-.858a.143.143 0 0 1-.142-.143V9.446H5.589a.143.143 0 0 1-.143-.142v-.858c0-.078.065-.142.143-.142h2.715V5.589c0-.078.064-.143.142-.143h.858c.078 0 .142.065.142.143v2.715z"
              fill="#278BED"/>
    </symbol>
    <symbol id="ic-edit" fill="none" viewBox="0 0 17 17" xmlns="http://www.w3.org/2000/svg">
        <path
            d="M16.023 4.053L13.1 1.117a1.03 1.03 0 0 0-1.453 0L1.292 11.46l-.946 4.08a1.025 1.025 0 0 0 .995 1.245c.072.007.143.007.215 0l4.125-.946L16.023 5.507a1.03 1.03 0 0 0 0-1.454zm-10.84 10.89l-3.866.81.88-3.792 7.75-7.718 2.985 2.986-7.749 7.713zM13.6 6.506l-2.986-2.986 1.732-1.722 2.936 2.986L13.6 6.507z"
            fill="#278BED"/>
    </symbol>
    <symbol id="ic-success" fill="none" viewBox="0 0 44 44" xmlns="http://www.w3.org/2000/svg">
        <circle cx="22" cy="22" r="22" fill="#5BC595"/>
        <path d="M14 22.5l5 5.5 12.5-12.5" stroke="#D6F0E4" stroke-width="4" stroke-linecap="round"/>
    </symbol>
    <symbol id="ic-switchcamera" viewBox="0 -25 512 512" xmlns="http://www.w3.org/2000/svg">
        <path d="M351 253h-51c-11.047 0-20-8.953-20-20s8.953-20 20-20h23.352c-15.082-25.14-42.309-41-72.813-41-31.219 0-59.871 17.066-74.773 44.54-5.27 9.706-17.41 13.308-27.118 8.038-9.71-5.266-13.308-17.406-8.043-27.113C162.512 157.085 204.637 132 250.535 132c27.336 0 53.305 8.664 75.094 25.063 9.664 7.269 18.203 15.964 25.371 25.656V163c0-11.047 8.953-20 20-20s20 8.953 20 20v50c0 22.055-17.945 40-40 40zm141 49c11.047 0 20-8.953 20-20V152c0-44.113-35.887-80-80-80h-30.36a20.003 20.003 0 0 1-18.937-13.555l-6.05-17.78C368.374 16.343 345.55 0 319.854 0h-127.77c-25.198 0-47.878 15.922-56.433 39.621l-6.925 19.172C125.875 66.691 118.317 72 109.914 72H80c-44.113 0-80 35.887-80 80v230c0 44.113 35.887 80 80 80h352c44.113 0 80-35.887 80-80 0-11.047-8.953-20-20-20s-20 8.953-20 20c0 22.055-17.945 40-40 40H80c-22.055 0-40-17.945-40-40V152c0-22.055 17.945-40 40-40h29.914c25.2 0 47.879-15.922 56.434-39.621l6.925-19.172C176.125 45.309 183.683 40 192.086 40h127.77a19.997 19.997 0 0 1 18.933 13.555l6.05 17.78C353.122 95.657 375.946 112 401.642 112H432c22.055 0 40 17.945 40 40v130c0 11.047 8.953 20 20 20zm-263-17c0-11.047-8.953-20-20-20h-51c-22.055 0-40 17.945-40 40v50c0 11.047 8.953 20 20 20s20-8.953 20-20v-19.969c7.207 9.793 15.809 18.574 25.555 25.906C205.348 377.337 231.312 386 258.645 386c45.902 0 88.027-25.086 109.933-65.46 5.27-9.712 1.668-21.853-8.043-27.118-9.707-5.27-21.847-1.668-27.113 8.043C318.516 328.934 289.863 346 258.645 346c-30.504 0-57.73-15.86-72.813-41H209c11.047 0 20-8.953 20-20zm0 0"/>
    </symbol>
</svg>
